<svg width="244.505" height="37.792" viewBox="0 0 244.505 37.792" xmlns="http://www.w3.org/2000/svg" xmlns:xlink="http://www.w3.org/1999/xlink" overflow="hidden"><g id="Grupo_2" transform="translate(-180.625 -254.858)"><path d="M288.23 274.5 288.23 282.607C286.902 283.232 285.466 283.595 284 283.676 282.576 283.678 281.185 283.242 280.017 282.427 278.764 281.595 277.781 280.416 277.189 279.034 276.464 277.458 276.104 275.739 276.135 274.004 276.18 272.432 276.429 270.873 276.876 269.365 277.231 268.106 277.83 266.929 278.639 265.901 279.346 264.977 280.266 264.237 281.32 263.744 282.388 263.236 283.559 262.981 284.742 263 286.005 263.007 287.254 263.271 288.412 263.776 289.674 264.373 290.739 265.32 291.481 266.503L291.968 266.503C292.035 265.938 292.153 265.381 292.321 264.838 292.464 264.203 292.678 263.587 292.958 263 290.407 261.576 287.523 260.855 284.602 260.911 282.32 260.887 280.054 261.309 277.933 262.151 274.718 263.393 272.249 266.04 271.233 269.334 270.75 270.809 270.504 272.35 270.502 273.902 270.449 275.804 270.871 277.689 271.729 279.387 272.496 280.848 273.609 282.1 274.971 283.033 276.316 283.951 277.807 284.635 279.38 285.055 280.951 285.444 282.562 285.646 284.18 285.655 287.301 285.609 290.397 285.081 293.357 284.09L293.357 274.5C292.493 274.636 291.62 274.707 290.746 274.711 289.903 274.705 289.062 274.635 288.23 274.5Z" id="Trazado_17" fill="#161615" fill-rule="evenodd"/><path d="M254.509 261.515 254.509 285.021 267.632 285.021C267.577 284.568 267.494 284.119 267.383 283.676 267.456 283.246 267.559 282.676 267.667 282.043 265.022 282.372 262.359 282.537 259.693 282.538L259.693 273.791 263.327 273.791C264.723 273.769 266.118 273.879 267.493 274.119 267.417 273.653 267.351 273.155 267.282 272.738 267.288 272.498 267.311 272.259 267.351 272.023 267.383 271.737 267.451 271.423 267.493 271.1 266.399 271.303 265.287 271.397 264.174 271.382L259.693 271.382 259.693 264.027 260.857 264.027C263.123 264.027 265.386 264.18 267.632 264.484 267.532 263.884 267.456 263.384 267.383 263.065 267.493 262.358 267.594 261.865 267.667 261.515Z" id="Trazado_18" fill="#161615" fill-rule="evenodd"/><path d="M307.242 261.3C307.034 261.266 306.824 261.252 306.613 261.259 306.368 261.229 306.187 261.229 305.973 261.19L305.906 261.375 296.17 285.159C296.346 285.125 296.589 285.125 296.944 285.086 297.182 285.092 297.42 285.07 297.653 285.021 297.943 285.065 298.236 285.087 298.53 285.086 298.917 285.125 299.204 285.125 299.383 285.159 299.552 284.482 299.768 283.845 299.976 283.175 300.223 282.497 300.544 281.552 300.968 280.375 301.428 279.175 301.712 278.394 301.815 278.041L309.849 278.041C310.772 280.407 311.549 282.786 312.249 285.157 312.605 285.123 313.064 285.123 313.696 285.084 314.142 285.088 314.588 285.066 315.031 285.019 315.431 285.053 315.922 285.084 316.588 285.084 317.255 285.123 317.788 285.123 318.171 285.157L308.581 261.188C308.477 261.19 308.017 261.259 307.242 261.3ZM305.906 275.841 302.763 275.841 305.906 268.024 305.973 267.845 309.084 275.845Z" id="Trazado_19" fill="#161615" fill-rule="evenodd"/><path d="M249.006 273.125C248.756 271.247 248.581 269.434 248.37 267.814 248.191 266.182 247.947 264.062 247.67 261.514 247.107 261.581 246.607 261.653 246.259 261.693 245.51 261.612 245.022 261.544 244.814 261.514 244.174 262.855 243.473 264.309 242.695 265.86 241.956 267.46 241.28 268.76 240.75 269.829 240.22 270.898 239.588 272.129 238.85 273.538 238.15 274.929 237.439 276.345 236.695 277.756 233.213 270.745 230.565 265.333 228.795 261.514 228.545 261.544 228.09 261.614 227.385 261.693 227.17 261.678 226.956 261.651 226.744 261.612 226.466 261.581 226.217 261.544 225.971 261.512 225.445 265.472 224.882 269.543 224.283 273.725 223.645 277.898 223.007 281.725 222.413 285.225 222.722 285.189 223.258 285.12 224.032 285.016 224.3 285.073 224.573 285.107 224.847 285.116 225.047 285.15 225.304 285.185 225.657 285.221 225.657 284.013 225.757 282.529 225.902 280.759 226.007 278.959 226.217 277.001 226.43 274.921 226.679 272.791 226.897 270.987 227.102 269.471 227.495 270.28 228.052 271.411 228.795 272.897 229.495 274.389 230.1 275.623 230.56 276.581 231.047 277.54 231.719 278.954 232.638 280.828 233.557 282.702 234.224 284.085 234.648 285.012L235.924 285.012C238.213 280.016 240.751 274.716 243.536 269.112 243.677 270.425 243.853 271.946 244.036 273.752 244.245 275.552 244.391 276.934 244.493 277.852 244.599 278.815 244.668 279.942 244.814 281.293 244.914 282.634 244.985 283.945 245.022 285.222 245.957 285.082 246.901 285.012 247.847 285.013 248.793 285.009 249.737 285.079 250.672 285.222 250.311 282.953 250.029 280.829 249.784 278.879 249.5 276.914 249.254 274.991 249.006 273.125Z" id="Trazado_20" fill="#161615" fill-rule="evenodd"/><path d="M352.428 261.3C352.219 261.266 352.008 261.252 351.796 261.259 351.584 261.229 351.38 261.229 351.158 261.19L351.094 261.375 341.363 285.159C341.531 285.125 341.778 285.125 342.134 285.086 342.371 285.092 342.609 285.07 342.841 285.021 343.131 285.065 343.424 285.087 343.717 285.086 344.11 285.125 344.392 285.125 344.568 285.159 344.737 284.482 344.949 283.845 345.168 283.175 345.414 282.497 345.731 281.552 346.149 280.375 346.611 279.175 346.896 278.394 347.005 278.041L355.046 278.041C355.959 280.407 356.734 282.786 357.438 285.157 357.793 285.123 358.252 285.123 358.849 285.084 359.309 285.089 359.769 285.067 360.227 285.019 360.619 285.053 361.142 285.084 361.78 285.084 362.449 285.123 362.98 285.123 363.368 285.157L353.768 261.188C353.668 261.19 353.209 261.259 352.428 261.3ZM351.094 275.841 347.948 275.841 351.094 268.024 351.158 267.845 354.269 275.845Z" id="Trazado_21" fill="#161615" fill-rule="evenodd"/><path d="M392.749 282.538 392.749 261.515C392.323 261.545 391.799 261.582 391.167 261.615 390.827 261.665 390.483 261.692 390.139 261.696 389.366 261.615 388.522 261.547 387.606 261.517L387.606 285.023 400.651 285.023C400.579 284.484 400.507 284.023 400.439 283.601 400.496 283.076 400.594 282.556 400.73 282.045 398.08 282.345 395.416 282.51 392.749 282.538Z" id="Trazado_22" fill="#161615" fill-rule="evenodd"/><path d="M380.068 273.3C379.101 272.898 378.079 272.646 377.037 272.552L377.037 272.234C380.671 271.534 382.537 269.726 382.676 266.782 382.702 265.796 382.432 264.824 381.901 263.992 381.334 263.179 380.551 262.542 379.64 262.152 378.568 261.71 377.417 261.493 376.258 261.516L366.91 261.516 366.91 285.022 374.955 285.022C376.089 284.99 377.215 284.822 378.309 284.522 379.306 284.209 380.237 283.716 381.057 283.068 381.759 282.484 382.313 281.743 382.676 280.905 383.061 280.062 383.254 279.145 383.243 278.219 383.284 277.099 382.965 275.995 382.333 275.07 381.753 274.285 380.97 273.672 380.068 273.3ZM372.099 263.529C372.603 263.453 373.11 263.407 373.619 263.39 374.068 263.394 374.515 263.441 374.955 263.529 376.68 263.923 377.524 265.124 377.524 267.139 377.53 267.865 377.4 268.585 377.141 269.263 376.905 269.909 376.489 270.473 375.941 270.888 375.643 271.114 375.311 271.294 374.959 271.421 374.668 271.536 374.358 271.598 374.045 271.602 373.4 271.671 372.751 271.694 372.103 271.67ZM377.242 280.873C376.887 281.508 376.378 282.043 375.762 282.428 375.511 282.593 375.24 282.724 374.955 282.819 374.662 282.926 374.353 282.986 374.041 282.995L372.1 282.995 372.1 273.729 373.081 273.729C373.712 273.717 374.342 273.786 374.956 273.934 376.899 274.502 377.85 276.027 377.85 278.502 377.859 279.332 377.649 280.149 377.242 280.872Z" id="Trazado_23" fill="#161615" fill-rule="evenodd"/><path d="M409.929 282.538 409.929 273.791 413.529 273.791C414.925 273.767 416.319 273.877 417.694 274.119 417.621 273.653 417.552 273.155 417.482 272.738 417.524 272.502 417.548 272.263 417.552 272.023 417.619 271.719 417.667 271.41 417.694 271.1 416.601 271.304 415.49 271.399 414.378 271.382L409.932 271.382 409.932 264.027 411.059 264.027C413.325 264.027 415.589 264.18 417.835 264.484 417.761 263.884 417.694 263.384 417.621 263.065 417.729 262.358 417.802 261.865 417.898 261.515L404.742 261.515 404.742 285.021 417.832 285.021C417.758 284.521 417.691 284.059 417.618 283.676 417.691 283.246 417.758 282.676 417.895 282.043 415.252 282.371 412.592 282.537 409.929 282.538Z" id="Trazado_24" fill="#161615" fill-rule="evenodd"/><path d="M328.445 264.265C329.656 263.427 331.097 262.985 332.57 263 333.644 262.998 334.701 263.265 335.646 263.776 336.689 264.361 337.59 265.17 338.283 266.145L338.709 266.145C339.029 264.73 339.309 263.528 339.56 262.611 338.683 262.089 337.73 261.707 336.736 261.476 335.265 261.072 333.743 260.882 332.217 260.911 330.232 260.929 328.265 261.288 326.401 261.971 324.286 262.761 322.448 264.152 321.111 265.971 319.593 267.954 318.823 270.671 318.782 274.117 318.775 275.622 319.073 277.113 319.659 278.499 320.266 279.895 321.142 281.158 322.236 282.216 323.424 283.316 324.817 284.172 326.336 284.734 328.074 285.366 329.913 285.679 331.762 285.657 334.124 285.752 336.47 285.236 338.573 284.157L339.346 281.186 338.858 280.977C338.05 281.801 337.074 282.44 335.996 282.851 334.978 283.276 333.889 283.503 332.787 283.522 329.55 283.668 326.581 281.731 325.411 278.709 324.768 277.075 324.457 275.328 324.498 273.572 324.449 271.633 324.81 269.705 325.557 267.915 326.136 266.438 327.141 265.168 328.445 264.265Z" id="Trazado_25" fill="#161615" fill-rule="evenodd"/><path d="M422.9 284.243C422.834 284.164 422.751 284.101 422.657 284.059 422.879 284.067 423.094 283.977 423.244 283.812 423.399 283.665 423.488 283.462 423.491 283.248 423.482 283.097 423.44 282.95 423.367 282.817 423.267 282.698 423.14 282.604 422.998 282.541 422.817 282.485 422.629 282.452 422.44 282.441L421.235 282.441 421.235 285.388 421.697 285.388 421.697 284.147 421.979 284.147C422.12 284.14 422.261 284.173 422.385 284.241L422.44 284.302C422.604 284.488 422.739 284.698 422.84 284.924L423.12 285.388 423.676 285.388 423.339 284.798C423.221 284.592 423.073 284.405 422.9 284.243ZM422.282 283.743 421.7 283.743 421.7 282.843 422.443 282.843C422.542 282.84 422.64 282.861 422.728 282.905 422.81 282.921 422.876 282.979 422.903 283.058 422.967 283.109 423.004 283.187 423.003 283.269 422.996 283.401 422.939 283.526 422.845 283.619 422.725 283.691 422.585 283.722 422.445 283.709ZM424.788 282.501C424.556 282.075 424.198 281.731 423.764 281.515 423.364 281.275 422.907 281.144 422.44 281.137 421.963 281.141 421.495 281.271 421.085 281.515 420.655 281.725 420.308 282.072 420.098 282.501 419.856 282.914 419.727 283.383 419.723 283.861 419.73 284.338 419.847 284.806 420.064 285.231 420.296 285.656 420.652 286 421.085 286.217 421.493 286.466 421.962 286.597 422.44 286.593 422.908 286.593 423.366 286.462 423.764 286.217 424.199 286.001 424.556 285.657 424.788 285.231 425.244 284.378 425.244 283.354 424.788 282.501ZM424.388 285.014C424.197 285.366 423.908 285.656 423.556 285.848 422.851 286.219 422.008 286.219 421.303 285.848 420.965 285.636 420.678 285.351 420.465 285.014 420.277 284.658 420.174 284.263 420.165 283.861 420.175 283.462 420.278 283.071 420.465 282.719 420.682 282.375 420.98 282.089 421.332 281.885 421.672 281.698 422.055 281.601 422.443 281.604 422.831 281.609 423.212 281.705 423.556 281.885 423.893 282.096 424.178 282.381 424.388 282.719 424.583 283.069 424.69 283.461 424.7 283.861 424.705 284.269 424.596 284.67 424.385 285.019Z" id="Trazado_26" fill="#161615"/><path d="M199.52 254.858C189.075 254.868 180.615 263.343 180.625 273.789 180.627 276.367 181.157 278.918 182.181 281.284 182.028 274.728 184.256 268.339 188.452 263.3 189.992 263.532 191.31 264.525 191.958 265.941 187.425 270.77 184.391 276.811 183.223 283.331 183.656 284.066 184.139 284.771 184.667 285.441 186.597 274.586 194.052 265.525 204.333 261.541 206.82 262.576 208.729 264.649 209.555 267.213 199.089 269.912 190.533 277.432 186.513 287.465 186.973 287.902 187.455 288.315 187.957 288.703 191.506 281.255 197.811 275.478 205.541 272.593 207.507 273.642 208.777 275.648 208.884 277.874 201.319 279.603 194.568 283.856 189.742 289.934 198.675 295.333 210.294 292.469 215.693 283.535 221.093 274.602 218.228 262.983 209.295 257.584 206.346 255.802 202.966 254.859 199.52 254.859Z" id="Trazado_27" fill="#004C9B"/></g></svg>